<?xml version="1.0" encoding="UTF-8"?>
<svg width="586px" height="588px" viewBox="0 0 586 588" version="1.1" xmlns="http://www.w3.org/2000/svg" xmlns:xlink="http://www.w3.org/1999/xlink">
    <!-- Generator: Sketch 47.1 (45422) - http://www.bohemiancoding.com/sketch -->
    <title>Awesome-Composi-Logo</title>
    <desc>Created with Sketch.</desc>
    <defs></defs>
    <g id="Page-1" stroke="none" stroke-width="1" fill="none" fill-rule="evenodd">
        <g id="Awesome-Composi-Logo" fill-rule="nonzero">
            <path d="M47,0 L203.433333,0 L203.433333,62.5733333 L391.153333,62.5733333 L391.153333,0 L541,0 L541,154.786667 L476.366667,154.551467 L476.366667,344.153333 L541,344.153333 L541,494 L391.153333,494 L391.153333,436.366667 L203.433333,436.366667 L203.433333,494 L47,494 L47,344.153333 L112.866667,344.153333 L112.866667,154.786667 L47,154.551467 L47,0 Z M224,177 L224,317 L364,317 L364,177 L224,177 Z" id="Combined-Shape" fill="#DB0001"></path>
            <g id="awesome-logo" transform="translate(0.000000, 167.000000)">
                <path d="M50.7,357 C54.7,357 58,358.4 60.8,361.2 C63.6,364 65,367.4 65,371.3 L65,420.9 L14.3,420.9 C10.3,420.9 7,419.5 4.2,416.7 C1.4,413.9 0,410.5 0,406.6 L0,383 L53.1,383 L53.1,371.3 C53.1,370.6 52.9,370.1 52.4,369.6 C51.9,369.1 51.4,368.9 50.7,368.9 L0,368.9 L0,357 L50.7,357 Z M53.1,409 L53.1,394.9 L11.9,394.9 L11.9,406.6 C11.9,407.3 12.1,407.8 12.6,408.3 C13.1,408.8 13.6,409 14.3,409 L53.1,409 L53.1,409 Z M167.8,357 L180.5,357 L156.5,420.9 L146.8,420.9 L125.3,373.4 L105,420.9 L104.8,420.8 L104.9,420.9 L95.3,420.9 L70.2,357 L82.8,357 L100.1,399.4 L118.5,357 L132.1,357 L151.6,399.4 L167.8,357 Z M235,357 C239,357 242.3,358.4 245.1,361.2 C247.9,364 249.3,367.4 249.3,371.3 L249.3,394.9 L196.2,394.9 L196.2,406.6 C196.2,407.3 196.4,407.8 196.9,408.3 C197.4,408.8 197.9,409 198.6,409 L249.3,409 L249.3,420.9 L198.6,420.9 C194.6,420.9 191.3,419.5 188.5,416.7 C185.7,413.9 184.3,410.5 184.3,406.6 L184.3,371.3 C184.3,367.3 185.7,364 188.5,361.2 C191.3,358.4 194.7,357 198.6,357 L235,357 L235,357 Z M196.2,383 L237.4,383 L237.4,371.3 C237.4,370.6 237.2,370.1 236.7,369.6 C236.2,369.1 235.7,368.9 235,368.9 L198.6,368.9 C197.9,368.9 197.4,369.1 196.9,369.6 C196.4,370.1 196.2,370.6 196.2,371.3 L196.2,383 L196.2,383 Z M325.2,371.4 L325.2,373.8 L313.3,373.8 L313.3,371.4 C313.3,370.7 313.1,370.2 312.6,369.7 C312.1,369.2 311.6,369 310.9,369 L274.5,369 C273.8,369 273.3,369.2 272.8,369.7 C272.3,370.2 272.1,370.7 272.1,371.4 L272.1,380.7 C272.1,381.4 272.3,381.9 272.8,382.4 C273.3,382.9 273.8,383.1 274.5,383.1 L310.9,383.1 C314.9,383.1 318.2,384.5 321,387.3 C323.8,390.1 325.2,393.5 325.2,397.4 L325.2,406.7 C325.2,410.7 323.8,414 321,416.8 C318.2,419.6 314.8,421 310.9,421 L274.5,421 C270.5,421 267.2,419.6 264.4,416.8 C261.6,414 260.2,410.6 260.2,406.7 L260.2,404.3 L272.1,404.3 L272.1,406.7 C272.1,407.4 272.3,407.9 272.8,408.4 C273.3,408.9 273.8,409.1 274.5,409.1 L310.9,409.1 C311.6,409.1 312.1,408.9 312.6,408.4 C313.1,407.9 313.3,407.4 313.3,406.7 L313.3,397.4 C313.3,396.7 313.1,396.2 312.6,395.7 C312.1,395.2 311.6,395 310.9,395 L274.5,395 C270.5,395 267.2,393.6 264.4,390.8 C261.6,388 260.2,384.6 260.2,380.7 L260.2,371.4 C260.2,367.4 261.6,364.1 264.4,361.3 C267.2,358.5 270.6,357.1 274.5,357.1 L310.9,357.1 C314.9,357.1 318.2,358.5 321,361.3 C323.8,364 325.2,367.4 325.2,371.4 Z M350.4,357 L386.8,357 C390.8,357 394.1,358.4 396.9,361.2 C399.7,364 401.1,367.4 401.1,371.3 L401.1,406.6 C401.1,410.6 399.7,413.9 396.9,416.7 C394.1,419.5 390.7,420.9 386.8,420.9 L350.4,420.9 C346.4,420.9 343.1,419.5 340.3,416.7 C337.5,413.9 336.1,410.5 336.1,406.6 L336.1,371.3 C336.1,367.3 337.5,364 340.3,361.2 C343.1,358.4 346.5,357 350.4,357 L350.4,357 Z M386.8,368.9 L350.4,368.9 C349.7,368.9 349.2,369.1 348.7,369.6 C348.2,370.1 348,370.6 348,371.3 L348,406.6 C348,407.3 348.2,407.8 348.7,408.3 C349.2,408.8 349.7,409 350.4,409 L386.8,409 C387.5,409 388,408.8 388.5,408.3 C389,407.8 389.2,407.3 389.2,406.6 L389.2,371.3 C389.2,370.6 389,370.1 388.5,369.6 C388,369.2 387.5,368.9 386.8,368.9 Z M494.3,357 C498.3,357 501.6,358.4 504.4,361.2 C507.2,364 508.6,367.4 508.6,371.3 L508.6,420.9 L496.8,420.9 L496.8,371.3 C496.8,370.6 496.6,370.1 496.1,369.6 C495.6,369.1 495,368.9 494.3,368.9 L469.1,368.9 C468.4,368.9 467.9,369.1 467.4,369.6 C466.9,370.1 466.7,370.6 466.7,371.3 L466.7,420.9 L454.8,420.9 L454.8,371.3 C454.8,370.6 454.6,370.1 454.1,369.6 C453.6,369.1 453.1,368.9 452.4,368.9 L427.1,368.9 C426.4,368.9 425.9,369.1 425.4,369.6 C424.9,370.1 424.7,370.6 424.7,371.3 L424.7,420.9 L412.8,420.9 L412.8,357 L494.3,357 Z M570.8,357 C574.8,357 578.1,358.4 580.9,361.2 C583.7,364 585.1,367.4 585.1,371.3 L585.1,394.9 L532,394.9 L532,406.6 C532,407.3 532.2,407.8 532.7,408.3 C533.2,408.8 533.7,409 534.4,409 L585.1,409 L585.1,420.9 L534.4,420.9 C530.4,420.9 527.1,419.5 524.3,416.7 C521.5,413.9 520.1,410.5 520.1,406.6 L520.1,371.3 C520.1,367.3 521.5,364 524.3,361.2 C527.1,358.4 530.5,357 534.4,357 L570.8,357 L570.8,357 Z M532,383 L573.2,383 L573.2,371.3 C573.2,370.6 573,370.1 572.5,369.6 C572,369.1 571.5,368.9 570.8,368.9 L534.4,368.9 C533.7,368.9 533.2,369.1 532.7,369.6 C532.2,370.1 532,370.6 532,371.3 L532,383 L532,383 Z" id="Shape" fill="#494368"></path>
                <path d="M475.714612,0.393638823 L539,53.5507812 L539,128.815999 C539,162.838865 505.982051,190.555053 465.441026,190.555053 L388.120513,190.555053 C347.579487,190.555053 314.561538,162.838865 314.561538,128.815999 L314.561538,79.3583697 L274.438462,79.3583697 L274.438462,128.815999 C274.438462,162.838865 241.420513,190.555053 200.879487,190.555053 L123.558974,190.555053 C83.0179487,190.555053 50,162.838865 50,128.815999 L50.0835897,53.5507812 L113.802041,0.461503933 L113.802041,33.0401405 L88.6184615,53.5507812 L500.465128,53.5507812 L475.945118,33.3756416 L475.714612,0.393638823 Z" id="Combined-Shape" fill="#60C3FC"></path>
            </g>
        </g>
    </g>
</svg>
